<svg xmlns="http://www.w3.org/2000/svg" xmlns:xlink="http://www.w3.org/1999/xlink" version="1.1" viewBox="0 0 1000 1000" xml:space="preserve">
<desc>Created with Fabric.js 3.5.0</desc>
<defs>
</defs>
<rect x="0" y="0" fill="#ffffff"/>
<g transform="matrix(7.4691 0 0 7.8184 120.1455 142.4566)" id="176319">
<path style="stroke: none; stroke-width: 1; stroke-dasharray: none; stroke-linecap: butt; stroke-dashoffset: 0; stroke-linejoin: miter; stroke-miterlimit: 4; is-custom-font: none; font-file-url: none; fill: rgb(217,205,8); fill-rule: nonzero; opacity: 1;" vector-effect="non-scaling-stroke" transform=" translate(-12, -11.5)" d="M 12 17.27 L 18.18 21 L 16.54 13.97 L 22 9.24 L 14.81 8.62 L 12 2 L 9.19 8.62 L 2 9.24 L 7.45 13.97 L 5.82 21 L 12 17.27 Z" stroke-linecap="round"/>
</g>
<g transform="matrix(0.2926 0 0 0.2936 744.7563 143.4676)" id="327823">
<g style="" vector-effect="non-scaling-stroke">
		<g transform="matrix(1 0 0 1 0 0)">
<path style="stroke: rgb(217,205,8); stroke-width: 32; stroke-dasharray: none; stroke-linecap: butt; stroke-dashoffset: 0; stroke-linejoin: round; stroke-miterlimit: 4; is-custom-font: none; font-file-url: none; fill: none; fill-rule: nonzero; opacity: 1;" transform=" translate(-256, -256)" d="M 480 208 H 308 L 256 48 L 204 208 H 32 l 140 96 L 118 464 L 256 364 L 394 464 L 340 304 Z" stroke-linecap="round"/>
</g>
		<g transform="matrix(1 0 0 1 -112 0)">
<polygon style="stroke: none; stroke-width: 1; stroke-dasharray: none; stroke-linecap: butt; stroke-dashoffset: 0; stroke-linejoin: miter; stroke-miterlimit: 4; is-custom-font: none; font-file-url: none; fill: rgb(217,205,8); fill-rule: nonzero; opacity: 1;" points="112,-208 112,108 -26,208 28,48 -112,-48 60,-48 112,-208 "/>
</g>
</g>
</g>
<g transform="matrix(7.4691 0 0 7.8184 274.0253 142.4575)" id="115518">
<path style="stroke: none; stroke-width: 1; stroke-dasharray: none; stroke-linecap: butt; stroke-dashoffset: 0; stroke-linejoin: miter; stroke-miterlimit: 4; is-custom-font: none; font-file-url: none; fill: rgb(217,205,8); fill-rule: nonzero; opacity: 1;" vector-effect="non-scaling-stroke" transform=" translate(-12, -11.5)" d="M 12 17.27 L 18.18 21 L 16.54 13.97 L 22 9.24 L 14.81 8.62 L 12 2 L 9.19 8.62 L 2 9.24 L 7.45 13.97 L 5.82 21 L 12 17.27 Z" stroke-linecap="round"/>
</g>
<g transform="matrix(7.4691 0 0 7.8184 427.9051 142.4575)" id="463271">
<path style="stroke: none; stroke-width: 1; stroke-dasharray: none; stroke-linecap: butt; stroke-dashoffset: 0; stroke-linejoin: miter; stroke-miterlimit: 4; is-custom-font: none; font-file-url: none; fill: rgb(217,205,8); fill-rule: nonzero; opacity: 1;" vector-effect="non-scaling-stroke" transform=" translate(-12, -11.5)" d="M 12 17.27 L 18.18 21 L 16.54 13.97 L 22 9.24 L 14.81 8.62 L 12 2 L 9.19 8.62 L 2 9.24 L 7.45 13.97 L 5.82 21 L 12 17.27 Z" stroke-linecap="round"/>
</g>
<g transform="matrix(7.4691 0 0 7.8184 589.9816 142.4575)" id="503627">
<path style="stroke: none; stroke-width: 1; stroke-dasharray: none; stroke-linecap: butt; stroke-dashoffset: 0; stroke-linejoin: miter; stroke-miterlimit: 4; is-custom-font: none; font-file-url: none; fill: rgb(217,205,8); fill-rule: nonzero; opacity: 1;" vector-effect="non-scaling-stroke" transform=" translate(-12, -11.5)" d="M 12 17.27 L 18.18 21 L 16.54 13.97 L 22 9.24 L 14.81 8.62 L 12 2 L 9.19 8.62 L 2 9.24 L 7.45 13.97 L 5.82 21 L 12 17.27 Z" stroke-linecap="round"/>
</g>
</svg>